<svg width="40" height="40" viewBox="0 0 40 40" fill="none" xmlns="http://www.w3.org/2000/svg">
<path d="M8.88889 26.6667V13.3333C8.88889 12.1111 9.32407 11.0648 10.1944 10.1944C11.0648 9.32407 12.1111 8.88889 13.3333 8.88889H31.4444L25.7222 3.16667L28.8889 0L40 11.1111L28.8889 22.2222L25.7222 19.1111L31.4444 13.3333H13.3333V26.6667H8.88889ZM4.44444 40C3.22222 40 2.17593 39.5648 1.30556 38.6944C0.435185 37.8241 0 36.7778 0 35.5556V2.22222H4.44444V35.5556H31.1111V26.6667H35.5556V35.5556C35.5556 36.7778 35.1204 37.8241 34.25 38.6944C33.3796 39.5648 32.3333 40 31.1111 40H4.44444Z" fill="black"/>
</svg>
