<svg width="183" height="52" viewBox="0 0 183 52" fill="none" xmlns="http://www.w3.org/2000/svg">
<g filter="url(#filter0_d_315_22)">
<rect x="4" width="175" height="44" rx="20" fill="white"/>
</g>
<path d="M55.64 26.94H45.8V27.7H55.64V29.46H43.72V25.24H53.56V24.5H43.72V22.8H55.64V26.94ZM49.24 16.24H43.66V14.4H55.7V16.24L52.7 17.12L55.7 17.94V19.7L49.68 17.98L43.66 19.7V17.82L49.24 16.24ZM56.56 20.32V22H42.8V20.32H56.56ZM69.0716 17.74V14.32H71.3516V29.46H69.0716V24.82H66.0716V22.64H69.0716V19.92H66.0716V17.74H69.0716ZM62.8916 16.56H58.1516V14.4H65.3916V16.56L63.2316 29.38H60.7716L62.8916 16.56ZM80.4631 25.2H74.5831V23.36H83.9631V14.32H86.2631V17.86H87.9031V19.78H86.2631V25.2L83.1431 26.34L86.3431 27.38V29.46L80.5031 27.3L74.5831 29.46V27.34L80.4631 25.2ZM79.2431 15.04H82.1031V17.14L80.1831 18.44L82.1031 19.94V22.48L78.4231 19.62L73.9031 22.64V20.1L78.3631 17.14H73.9031V15.04H76.8631V13.78H79.2431V15.04ZM102.615 22V24.14H92.2147V27.28H101.855V29.46H89.9347V24.14H88.8547V22H102.615ZM92.0147 18.06H101.615V20.22H89.8547V14.32H92.0147V18.06ZM119.662 23.86C120.048 23.86 120.415 23.9333 120.762 24.08C121.108 24.2267 121.408 24.4267 121.662 24.68C121.928 24.92 122.135 25.2133 122.282 25.56C122.428 25.9067 122.502 26.2733 122.502 26.66C122.502 27.06 122.428 27.4333 122.282 27.78C122.135 28.1133 121.928 28.4067 121.662 28.66C121.408 28.9133 121.108 29.1067 120.762 29.24C120.415 29.3867 120.048 29.46 119.662 29.46H113.122C112.735 29.46 112.368 29.3867 112.022 29.24C111.675 29.1067 111.368 28.9133 111.102 28.66C110.848 28.4067 110.648 28.1133 110.502 27.78C110.355 27.4333 110.282 27.06 110.282 26.66C110.282 26.2733 110.355 25.9067 110.502 25.56C110.648 25.2133 110.848 24.92 111.102 24.68C111.368 24.4267 111.675 24.2267 112.022 24.08C112.368 23.9333 112.735 23.86 113.122 23.86H119.662ZM117.682 14.4V16.62L115.542 18.28L117.762 20V22.68L113.842 19.62L109.802 22.76V20.08L114.342 16.62H109.802V14.4H117.682ZM119.762 22.66V14.32H122.162V17.22H123.802V19.4H122.162V22.66H119.762ZM113.122 25.96C112.935 25.96 112.775 26.0333 112.642 26.18C112.508 26.3133 112.442 26.4733 112.442 26.66C112.442 26.86 112.508 27.0267 112.642 27.16C112.775 27.2933 112.935 27.36 113.122 27.36H119.662C119.835 27.36 119.988 27.2933 120.122 27.16C120.268 27.0267 120.342 26.86 120.342 26.66C120.342 26.4733 120.268 26.3133 120.122 26.18C119.988 26.0333 119.835 25.96 119.662 25.96H113.122ZM135.093 23.9L131.633 17.2L128.173 23.9H125.213L130.113 14.38H133.153L138.053 23.9H135.093ZM130.433 27.36V23.06H132.833V27.36H138.513V29.46H124.753V27.36H130.433Z" fill="#292140"/>
<defs>
<filter id="filter0_d_315_22" x="0" y="0" width="183" height="52" filterUnits="userSpaceOnUse" color-interpolation-filters="sRGB">
<feFlood flood-opacity="0" result="BackgroundImageFix"/>
<feColorMatrix in="SourceAlpha" type="matrix" values="0 0 0 0 0 0 0 0 0 0 0 0 0 0 0 0 0 0 127 0" result="hardAlpha"/>
<feOffset dy="4"/>
<feGaussianBlur stdDeviation="2"/>
<feComposite in2="hardAlpha" operator="out"/>
<feColorMatrix type="matrix" values="0 0 0 0 0 0 0 0 0 0 0 0 0 0 0 0 0 0 0.25 0"/>
<feBlend mode="normal" in2="BackgroundImageFix" result="effect1_dropShadow_315_22"/>
<feBlend mode="normal" in="SourceGraphic" in2="effect1_dropShadow_315_22" result="shape"/>
</filter>
</defs>
</svg>
