<svg width="130" height="38" viewBox="0 0 130 38" fill="none" xmlns="http://www.w3.org/2000/svg">
<rect width="130" height="38" rx="5" fill="black"/>
<path d="M45.0791 9.45996V12.0625C44.9912 12.1927 44.8512 12.3392 44.6592 12.502C44.4671 12.6615 44.2018 12.8014 43.8633 12.9219C43.528 13.0391 43.0951 13.0977 42.5645 13.0977C42.1315 13.0977 41.7327 13.0228 41.3682 12.873C41.0068 12.7201 40.6927 12.4987 40.4258 12.209C40.1621 11.916 39.957 11.5612 39.8105 11.1445C39.6673 10.7246 39.5957 10.2493 39.5957 9.71875V9.16699C39.5957 8.63639 39.6576 8.16276 39.7812 7.74609C39.9082 7.32943 40.0938 6.97624 40.3379 6.68652C40.582 6.39355 40.8815 6.1722 41.2363 6.02246C41.5911 5.86947 41.998 5.79297 42.457 5.79297C43.0007 5.79297 43.4548 5.88737 43.8193 6.07617C44.1872 6.26172 44.4736 6.51888 44.6787 6.84766C44.887 7.17643 45.0205 7.55078 45.0791 7.9707H44.1367C44.0944 7.71354 44.0098 7.47917 43.8828 7.26758C43.7591 7.05599 43.5817 6.88672 43.3506 6.75977C43.1195 6.62956 42.8216 6.56445 42.457 6.56445C42.1283 6.56445 41.8434 6.62467 41.6025 6.74512C41.3617 6.86556 41.1631 7.03809 41.0068 7.2627C40.8506 7.4873 40.7334 7.75911 40.6553 8.07812C40.5804 8.39714 40.543 8.75684 40.543 9.15723V9.71875C40.543 10.1289 40.5902 10.4951 40.6846 10.8174C40.7822 11.1396 40.9206 11.4147 41.0996 11.6426C41.2786 11.8672 41.4919 12.0381 41.7393 12.1553C41.9899 12.2725 42.2666 12.3311 42.5693 12.3311C42.9046 12.3311 43.1764 12.3034 43.3848 12.248C43.5931 12.1895 43.7559 12.1211 43.873 12.043C43.9902 11.9616 44.0798 11.8851 44.1416 11.8135V10.2217H42.4961V9.45996H45.0791ZM50.9082 12.2334V13H47.1436V12.2334H50.9082ZM47.334 5.89062V13H46.3916V5.89062H47.334ZM50.4102 8.94727V9.71387H47.1436V8.94727H50.4102ZM50.8594 5.89062V6.66211H47.1436V5.89062H50.8594ZM54.5498 5.89062V13H53.6221V5.89062H54.5498ZM56.835 5.89062V6.66211H51.3418V5.89062H56.835ZM60.6855 5.89062V13H59.7432V5.89062H60.6855ZM64.6299 5.89062V13H63.7021V5.89062H64.6299ZM66.915 5.89062V6.66211H61.4219V5.89062H66.915ZM75.2285 9.2207V9.66992C75.2285 10.2038 75.1618 10.6823 75.0283 11.1055C74.8949 11.5286 74.7028 11.8883 74.4521 12.1846C74.2015 12.4808 73.9004 12.707 73.5488 12.8633C73.2005 13.0195 72.8099 13.0977 72.377 13.0977C71.957 13.0977 71.5713 13.0195 71.2197 12.8633C70.8714 12.707 70.5687 12.4808 70.3115 12.1846C70.0576 11.8883 69.8607 11.5286 69.7207 11.1055C69.5807 10.6823 69.5107 10.2038 69.5107 9.66992V9.2207C69.5107 8.68685 69.5791 8.20996 69.7158 7.79004C69.8558 7.36686 70.0527 7.00716 70.3066 6.71094C70.5605 6.41146 70.8617 6.18359 71.21 6.02734C71.5615 5.87109 71.9473 5.79297 72.3672 5.79297C72.8001 5.79297 73.1908 5.87109 73.5391 6.02734C73.8906 6.18359 74.1917 6.41146 74.4424 6.71094C74.6963 7.00716 74.89 7.36686 75.0234 7.79004C75.1602 8.20996 75.2285 8.68685 75.2285 9.2207ZM74.2959 9.66992V9.21094C74.2959 8.78776 74.252 8.41341 74.1641 8.08789C74.0794 7.76237 73.9541 7.48893 73.7881 7.26758C73.6221 7.04622 73.4186 6.87858 73.1777 6.76465C72.9401 6.65072 72.6699 6.59375 72.3672 6.59375C72.0742 6.59375 71.8089 6.65072 71.5713 6.76465C71.3369 6.87858 71.1351 7.04622 70.9658 7.26758C70.7998 7.48893 70.6712 7.76237 70.5801 8.08789C70.4889 8.41341 70.4434 8.78776 70.4434 9.21094V9.66992C70.4434 10.0964 70.4889 10.474 70.5801 10.8027C70.6712 11.1283 70.8014 11.4033 70.9707 11.6279C71.1432 11.8493 71.3467 12.0169 71.5811 12.1309C71.8187 12.2448 72.084 12.3018 72.377 12.3018C72.6829 12.3018 72.9548 12.2448 73.1924 12.1309C73.43 12.0169 73.6302 11.8493 73.793 11.6279C73.959 11.4033 74.0843 11.1283 74.1689 10.8027C74.2536 10.474 74.2959 10.0964 74.2959 9.66992ZM81.8584 5.89062V13H80.9111L77.332 7.5166V13H76.3896V5.89062H77.332L80.9258 11.3887V5.89062H81.8584Z" fill="white"/>
<path d="M47.7266 23.3359V27.5C47.5859 27.7083 47.362 27.9427 47.0547 28.2031C46.7474 28.4583 46.3229 28.6823 45.7812 28.875C45.2448 29.0625 44.5521 29.1562 43.7031 29.1562C43.0104 29.1562 42.3724 29.0365 41.7891 28.7969C41.2109 28.5521 40.7083 28.1979 40.2812 27.7344C39.8594 27.2656 39.5312 26.6979 39.2969 26.0312C39.0677 25.3594 38.9531 24.599 38.9531 23.75V22.8672C38.9531 22.0182 39.0521 21.2604 39.25 20.5938C39.4531 19.9271 39.75 19.362 40.1406 18.8984C40.5312 18.4297 41.0104 18.0755 41.5781 17.8359C42.1458 17.5911 42.7969 17.4688 43.5312 17.4688C44.401 17.4688 45.1276 17.6198 45.7109 17.9219C46.2995 18.2188 46.7578 18.6302 47.0859 19.1562C47.4193 19.6823 47.6328 20.2812 47.7266 20.9531H46.2188C46.151 20.5417 46.0156 20.1667 45.8125 19.8281C45.6146 19.4896 45.3307 19.2188 44.9609 19.0156C44.5911 18.8073 44.1146 18.7031 43.5312 18.7031C43.0052 18.7031 42.5495 18.7995 42.1641 18.9922C41.7786 19.1849 41.4609 19.4609 41.2109 19.8203C40.9609 20.1797 40.7734 20.6146 40.6484 21.125C40.5286 21.6354 40.4688 22.2109 40.4688 22.8516V23.75C40.4688 24.4062 40.5443 24.9922 40.6953 25.5078C40.8516 26.0234 41.0729 26.4635 41.3594 26.8281C41.6458 27.1875 41.987 27.4609 42.3828 27.6484C42.7839 27.8359 43.2266 27.9297 43.7109 27.9297C44.2474 27.9297 44.6823 27.8854 45.0156 27.7969C45.349 27.7031 45.6094 27.5938 45.7969 27.4688C45.9844 27.3385 46.1276 27.2161 46.2266 27.1016V24.5547H43.5938V23.3359H47.7266ZM49.375 24.8672V24.6875C49.375 24.0781 49.4635 23.513 49.6406 22.9922C49.8177 22.4661 50.0729 22.0104 50.4062 21.625C50.7396 21.2344 51.1432 20.9323 51.6172 20.7188C52.0911 20.5 52.6224 20.3906 53.2109 20.3906C53.8047 20.3906 54.3385 20.5 54.8125 20.7188C55.2917 20.9323 55.6979 21.2344 56.0312 21.625C56.3698 22.0104 56.6276 22.4661 56.8047 22.9922C56.9818 23.513 57.0703 24.0781 57.0703 24.6875V24.8672C57.0703 25.4766 56.9818 26.0417 56.8047 26.5625C56.6276 27.0833 56.3698 27.5391 56.0312 27.9297C55.6979 28.3151 55.2943 28.6172 54.8203 28.8359C54.3516 29.0495 53.8203 29.1562 53.2266 29.1562C52.6328 29.1562 52.099 29.0495 51.625 28.8359C51.151 28.6172 50.7448 28.3151 50.4062 27.9297C50.0729 27.5391 49.8177 27.0833 49.6406 26.5625C49.4635 26.0417 49.375 25.4766 49.375 24.8672ZM50.8203 24.6875V24.8672C50.8203 25.2891 50.8698 25.6875 50.9688 26.0625C51.0677 26.4323 51.2161 26.7604 51.4141 27.0469C51.6172 27.3333 51.8698 27.5599 52.1719 27.7266C52.474 27.888 52.8255 27.9688 53.2266 27.9688C53.6224 27.9688 53.9688 27.888 54.2656 27.7266C54.5677 27.5599 54.8177 27.3333 55.0156 27.0469C55.2135 26.7604 55.362 26.4323 55.4609 26.0625C55.5651 25.6875 55.6172 25.2891 55.6172 24.8672V24.6875C55.6172 24.2708 55.5651 23.8776 55.4609 23.5078C55.362 23.1328 55.2109 22.8021 55.0078 22.5156C54.8099 22.224 54.5599 21.9948 54.2578 21.8281C53.9609 21.6615 53.612 21.5781 53.2109 21.5781C52.8151 21.5781 52.4661 21.6615 52.1641 21.8281C51.8672 21.9948 51.6172 22.224 51.4141 22.5156C51.2161 22.8021 51.0677 23.1328 50.9688 23.5078C50.8698 23.8776 50.8203 24.2708 50.8203 24.6875ZM58.25 24.8672V24.6875C58.25 24.0781 58.3385 23.513 58.5156 22.9922C58.6927 22.4661 58.9479 22.0104 59.2812 21.625C59.6146 21.2344 60.0182 20.9323 60.4922 20.7188C60.9661 20.5 61.4974 20.3906 62.0859 20.3906C62.6797 20.3906 63.2135 20.5 63.6875 20.7188C64.1667 20.9323 64.5729 21.2344 64.9062 21.625C65.2448 22.0104 65.5026 22.4661 65.6797 22.9922C65.8568 23.513 65.9453 24.0781 65.9453 24.6875V24.8672C65.9453 25.4766 65.8568 26.0417 65.6797 26.5625C65.5026 27.0833 65.2448 27.5391 64.9062 27.9297C64.5729 28.3151 64.1693 28.6172 63.6953 28.8359C63.2266 29.0495 62.6953 29.1562 62.1016 29.1562C61.5078 29.1562 60.974 29.0495 60.5 28.8359C60.026 28.6172 59.6198 28.3151 59.2812 27.9297C58.9479 27.5391 58.6927 27.0833 58.5156 26.5625C58.3385 26.0417 58.25 25.4766 58.25 24.8672ZM59.6953 24.6875V24.8672C59.6953 25.2891 59.7448 25.6875 59.8438 26.0625C59.9427 26.4323 60.0911 26.7604 60.2891 27.0469C60.4922 27.3333 60.7448 27.5599 61.0469 27.7266C61.349 27.888 61.7005 27.9688 62.1016 27.9688C62.4974 27.9688 62.8438 27.888 63.1406 27.7266C63.4427 27.5599 63.6927 27.3333 63.8906 27.0469C64.0885 26.7604 64.237 26.4323 64.3359 26.0625C64.4401 25.6875 64.4922 25.2891 64.4922 24.8672V24.6875C64.4922 24.2708 64.4401 23.8776 64.3359 23.5078C64.237 23.1328 64.0859 22.8021 63.8828 22.5156C63.6849 22.224 63.4349 21.9948 63.1328 21.8281C62.8359 21.6615 62.487 21.5781 62.0859 21.5781C61.6901 21.5781 61.3411 21.6615 61.0391 21.8281C60.7422 21.9948 60.4922 22.224 60.2891 22.5156C60.0911 22.8021 59.9427 23.1328 59.8438 23.5078C59.7448 23.8776 59.6953 24.2708 59.6953 24.6875ZM72.9844 20.5469H74.2969V28.8203C74.2969 29.5651 74.1458 30.2005 73.8438 30.7266C73.5417 31.2526 73.1198 31.651 72.5781 31.9219C72.0417 32.1979 71.4219 32.3359 70.7188 32.3359C70.4271 32.3359 70.0833 32.2891 69.6875 32.1953C69.2969 32.1068 68.9115 31.9531 68.5312 31.7344C68.1562 31.5208 67.8411 31.2318 67.5859 30.8672L68.3438 30.0078C68.6979 30.4349 69.0677 30.7318 69.4531 30.8984C69.8438 31.0651 70.2292 31.1484 70.6094 31.1484C71.0677 31.1484 71.4635 31.0625 71.7969 30.8906C72.1302 30.7188 72.388 30.4635 72.5703 30.125C72.7578 29.7917 72.8516 29.3802 72.8516 28.8906V22.4062L72.9844 20.5469ZM67.1641 24.8672V24.7031C67.1641 24.0573 67.2396 23.4714 67.3906 22.9453C67.5469 22.4141 67.7682 21.9583 68.0547 21.5781C68.3464 21.1979 68.6979 20.9062 69.1094 20.7031C69.5208 20.4948 69.9844 20.3906 70.5 20.3906C71.0312 20.3906 71.4948 20.4844 71.8906 20.6719C72.2917 20.8542 72.6302 21.1224 72.9062 21.4766C73.1875 21.8255 73.4089 22.2474 73.5703 22.7422C73.7318 23.237 73.8438 23.7969 73.9062 24.4219V25.1406C73.849 25.7604 73.737 26.3177 73.5703 26.8125C73.4089 27.3073 73.1875 27.7292 72.9062 28.0781C72.6302 28.4271 72.2917 28.6953 71.8906 28.8828C71.4896 29.0651 71.0208 29.1562 70.4844 29.1562C69.9792 29.1562 69.5208 29.0495 69.1094 28.8359C68.7031 28.6224 68.3542 28.3229 68.0625 27.9375C67.7708 27.5521 67.5469 27.099 67.3906 26.5781C67.2396 26.0521 67.1641 25.4818 67.1641 24.8672ZM68.6094 24.7031V24.8672C68.6094 25.2891 68.651 25.6849 68.7344 26.0547C68.8229 26.4245 68.9557 26.75 69.1328 27.0312C69.3151 27.3125 69.5469 27.5339 69.8281 27.6953C70.1094 27.8516 70.4453 27.9297 70.8359 27.9297C71.3151 27.9297 71.7109 27.8281 72.0234 27.625C72.3359 27.4219 72.5833 27.1536 72.7656 26.8203C72.9531 26.487 73.099 26.125 73.2031 25.7344V23.8516C73.1458 23.5651 73.0573 23.2891 72.9375 23.0234C72.8229 22.7526 72.6719 22.513 72.4844 22.3047C72.3021 22.0911 72.0755 21.9219 71.8047 21.7969C71.5339 21.6719 71.2161 21.6094 70.8516 21.6094C70.4557 21.6094 70.1146 21.6927 69.8281 21.8594C69.5469 22.0208 69.3151 22.2448 69.1328 22.5312C68.9557 22.8125 68.8229 23.1406 68.7344 23.5156C68.651 23.8854 68.6094 24.2812 68.6094 24.7031ZM77.8125 17V29H76.3594V17H77.8125ZM83.3906 29.1562C82.8021 29.1562 82.2682 29.0573 81.7891 28.8594C81.3151 28.6562 80.9062 28.3724 80.5625 28.0078C80.224 27.6432 79.9635 27.2109 79.7812 26.7109C79.599 26.2109 79.5078 25.6641 79.5078 25.0703V24.7422C79.5078 24.0547 79.6094 23.4427 79.8125 22.9062C80.0156 22.3646 80.2917 21.9062 80.6406 21.5312C80.9896 21.1562 81.3854 20.8724 81.8281 20.6797C82.2708 20.487 82.7292 20.3906 83.2031 20.3906C83.8073 20.3906 84.3281 20.4948 84.7656 20.7031C85.2083 20.9115 85.5703 21.2031 85.8516 21.5781C86.1328 21.9479 86.3411 22.3854 86.4766 22.8906C86.612 23.3906 86.6797 23.9375 86.6797 24.5312V25.1797H80.3672V24H85.2344V23.8906C85.2135 23.5156 85.1354 23.151 85 22.7969C84.8698 22.4427 84.6615 22.151 84.375 21.9219C84.0885 21.6927 83.6979 21.5781 83.2031 21.5781C82.875 21.5781 82.5729 21.6484 82.2969 21.7891C82.0208 21.9245 81.7839 22.1276 81.5859 22.3984C81.388 22.6693 81.2344 23 81.125 23.3906C81.0156 23.7812 80.9609 24.2318 80.9609 24.7422V25.0703C80.9609 25.4714 81.0156 25.849 81.125 26.2031C81.2396 26.5521 81.4036 26.8594 81.6172 27.125C81.8359 27.3906 82.099 27.599 82.4062 27.75C82.7188 27.901 83.0729 27.9766 83.4688 27.9766C83.9792 27.9766 84.4115 27.8724 84.7656 27.6641C85.1198 27.4557 85.4297 27.1771 85.6953 26.8281L86.5703 27.5234C86.388 27.7995 86.1562 28.0625 85.875 28.3125C85.5938 28.5625 85.2474 28.7656 84.8359 28.9219C84.4297 29.0781 83.9479 29.1562 83.3906 29.1562ZM96.25 24.5391H93.2109V23.3125H96.25C96.8385 23.3125 97.3151 23.2188 97.6797 23.0312C98.0443 22.8438 98.3099 22.5833 98.4766 22.25C98.6484 21.9167 98.7344 21.5365 98.7344 21.1094C98.7344 20.7188 98.6484 20.3516 98.4766 20.0078C98.3099 19.6641 98.0443 19.388 97.6797 19.1797C97.3151 18.9661 96.8385 18.8594 96.25 18.8594H93.5625V29H92.0547V17.625H96.25C97.1094 17.625 97.8359 17.7734 98.4297 18.0703C99.0234 18.3672 99.474 18.7786 99.7812 19.3047C100.089 19.8255 100.242 20.4219 100.242 21.0938C100.242 21.8229 100.089 22.4453 99.7812 22.9609C99.474 23.4766 99.0234 23.8698 98.4297 24.1406C97.8359 24.4062 97.1094 24.5391 96.25 24.5391ZM103.25 17V29H101.797V17H103.25ZM110.305 27.5547V23.2031C110.305 22.8698 110.237 22.5807 110.102 22.3359C109.971 22.0859 109.773 21.8932 109.508 21.7578C109.242 21.6224 108.914 21.5547 108.523 21.5547C108.159 21.5547 107.839 21.6172 107.562 21.7422C107.292 21.8672 107.078 22.0312 106.922 22.2344C106.771 22.4375 106.695 22.6562 106.695 22.8906H105.25C105.25 22.5885 105.328 22.2891 105.484 21.9922C105.641 21.6953 105.865 21.4271 106.156 21.1875C106.453 20.9427 106.807 20.75 107.219 20.6094C107.635 20.4635 108.099 20.3906 108.609 20.3906C109.224 20.3906 109.766 20.4948 110.234 20.7031C110.708 20.9115 111.078 21.2266 111.344 21.6484C111.615 22.0651 111.75 22.5885 111.75 23.2188V27.1562C111.75 27.4375 111.773 27.737 111.82 28.0547C111.872 28.3724 111.948 28.6458 112.047 28.875V29H110.539C110.466 28.8333 110.409 28.612 110.367 28.3359C110.326 28.0547 110.305 27.7943 110.305 27.5547ZM110.555 23.875L110.57 24.8906H109.109C108.698 24.8906 108.331 24.9245 108.008 24.9922C107.685 25.0547 107.414 25.151 107.195 25.2812C106.977 25.4115 106.81 25.5755 106.695 25.7734C106.581 25.9661 106.523 26.1927 106.523 26.4531C106.523 26.7188 106.583 26.9609 106.703 27.1797C106.823 27.3984 107.003 27.5729 107.242 27.7031C107.487 27.8281 107.786 27.8906 108.141 27.8906C108.583 27.8906 108.974 27.7969 109.312 27.6094C109.651 27.4219 109.919 27.1927 110.117 26.9219C110.32 26.651 110.43 26.388 110.445 26.1328L111.062 26.8281C111.026 27.0469 110.927 27.2891 110.766 27.5547C110.604 27.8203 110.388 28.0755 110.117 28.3203C109.852 28.5599 109.534 28.7604 109.164 28.9219C108.799 29.0781 108.388 29.1562 107.93 29.1562C107.357 29.1562 106.854 29.0443 106.422 28.8203C105.995 28.5964 105.661 28.2969 105.422 27.9219C105.188 27.5417 105.07 27.1172 105.07 26.6484C105.07 26.1953 105.159 25.7969 105.336 25.4531C105.513 25.1042 105.768 24.8151 106.102 24.5859C106.435 24.3516 106.836 24.1745 107.305 24.0547C107.773 23.9349 108.297 23.875 108.875 23.875H110.555ZM116.023 28.125L118.375 20.5469H119.922L116.531 30.3047C116.453 30.513 116.349 30.737 116.219 30.9766C116.094 31.2214 115.932 31.4531 115.734 31.6719C115.536 31.8906 115.297 32.0677 115.016 32.2031C114.74 32.3438 114.409 32.4141 114.023 32.4141C113.909 32.4141 113.763 32.3984 113.586 32.3672C113.409 32.3359 113.284 32.3099 113.211 32.2891L113.203 31.1172C113.245 31.1224 113.31 31.1276 113.398 31.1328C113.492 31.1432 113.557 31.1484 113.594 31.1484C113.922 31.1484 114.201 31.1042 114.43 31.0156C114.659 30.9323 114.852 30.7891 115.008 30.5859C115.169 30.388 115.307 30.1146 115.422 29.7656L116.023 28.125ZM114.297 20.5469L116.492 27.1094L116.867 28.6328L115.828 29.1641L112.719 20.5469H114.297Z" fill="white"/>
<path d="M19.2741 17.9406L9.09112 28.928C9.20547 29.3453 9.41097 29.7302 9.6919 30.0533C9.97284 30.3763 10.3218 30.6289 10.712 30.7918C11.1023 30.9546 11.5235 31.0235 11.9436 30.993C12.3636 30.9625 12.7713 30.8335 13.1355 30.6158L24.5933 23.8954L19.2741 17.9406Z" fill="#EA4335"/>
<path d="M29.5709 16.073L24.6162 13.1503L19.039 18.1906L24.6388 23.8796L29.5558 20.9882C29.9914 20.7533 30.3563 20.4001 30.6109 19.9669C30.8654 19.5336 31 19.0369 31 18.5306C31 18.0242 30.8654 17.5275 30.6109 17.0942C30.3563 16.661 29.9914 16.3078 29.5558 16.0729L29.5709 16.073Z" fill="#FBBC04"/>
<path d="M9.09112 8.0787C9.02961 8.31305 8.99897 8.55486 9.00003 8.79762V28.209C9.00063 28.4516 9.03124 28.6933 9.09112 28.928L19.6232 18.222L9.09112 8.0787Z" fill="#4285F4"/>
<path d="M19.35 18.5033L24.6161 13.1503L13.1735 6.39854C12.743 6.13889 12.2533 6.00137 11.7544 6.00001C10.5163 5.99753 9.42782 6.8438 9.09112 8.07091L19.35 18.5033Z" fill="#34A853"/>
</svg>
