<svg width="34" height="32" viewBox="0 0 34 32" fill="none" xmlns="http://www.w3.org/2000/svg">
<path d="M22.7558 7.66706L22.753 6.69661L17.833 7.69331L17.8232 4.29674C17.8215 3.73388 17.5965 3.74478 17.3579 3.93044C17.1194 4.1161 17.3018 3.97926 17.2737 3.99882C15.674 5.25925 13.2883 7.15467 10.1028 9.67546L10.1056 10.6459L15.0256 9.64921L15.0355 13.0458C15.0368 13.5213 15.2691 13.588 15.3955 13.5L15.5007 13.4315C20.3351 9.58207 22.7558 7.66706 22.7558 7.66706Z" fill="#003056"/>
<path d="M3.77778 14.0152L6.61111 3.09993H27.3889L30.2222 14.0152M27.3889 21.9535C26.6374 21.9535 25.9168 21.6399 25.3854 21.0816C24.8541 20.5234 24.5556 19.7662 24.5556 18.9767C24.5556 18.1871 24.8541 17.4299 25.3854 16.8717C25.9168 16.3134 26.6374 15.9998 27.3889 15.9998C28.1403 15.9998 28.861 16.3134 29.3924 16.8717C29.9237 17.4299 30.2222 18.1871 30.2222 18.9767C30.2222 19.7662 29.9237 20.5234 29.3924 21.0816C28.861 21.6399 28.1403 21.9535 27.3889 21.9535ZM6.61111 21.9535C5.85966 21.9535 5.13899 21.6399 4.60764 21.0816C4.07629 20.5234 3.77778 19.7662 3.77778 18.9767C3.77778 18.1871 4.07629 17.4299 4.60764 16.8717C5.13899 16.3134 5.85966 15.9998 6.61111 15.9998C7.36256 15.9998 8.08323 16.3134 8.61458 16.8717C9.14593 17.4299 9.44444 18.1871 9.44444 18.9767C9.44444 19.7662 9.14593 20.5234 8.61458 21.0816C8.08323 21.6399 7.36256 21.9535 6.61111 21.9535ZM30.0711 2.10764C29.6933 0.956575 28.6356 0.123047 27.3889 0.123047H6.61111C5.36444 0.123047 4.30667 0.956575 3.92889 2.10764L0 14.0152V29.8919C0 30.4182 0.199007 30.923 0.553243 31.2952C0.907478 31.6674 1.38792 31.8765 1.88889 31.8765H3.77778C4.27874 31.8765 4.75919 31.6674 5.11342 31.2952C5.46766 30.923 5.66667 30.4182 5.66667 29.8919V27.9073H28.3333V29.8919C28.3333 30.4182 28.5323 30.923 28.8866 31.2952C29.2408 31.6674 29.7213 31.8765 30.2222 31.8765H32.1111C32.6121 31.8765 33.0925 31.6674 33.4468 31.2952C33.801 30.923 34 30.4182 34 29.8919V14.0152L30.0711 2.10764Z" fill="#003056"/>
</svg>
