<svg width="34" height="32" viewBox="0 0 34 32" fill="none" xmlns="http://www.w3.org/2000/svg">
<path d="M22.7558 7.54401L22.753 6.57356L17.833 7.57026L17.8232 4.17369C17.8215 3.61083 17.5965 3.62173 17.3579 3.80739C17.1194 3.99305 17.3018 3.85622 17.2737 3.87578C15.674 5.13621 13.2883 7.03163 10.1028 9.55241L10.1056 10.5229L15.0256 9.52616L15.0355 12.9227C15.0368 13.3983 15.2691 13.4649 15.3955 13.3769L15.5007 13.3084C20.3351 9.45903 22.7558 7.54401 22.7558 7.54401Z" fill="#9D9FA1"/>
<path d="M3.77778 13.8921L6.61111 2.97688H27.3889L30.2222 13.8921M27.3889 21.8305C26.6374 21.8305 25.9168 21.5169 25.3854 20.9586C24.8541 20.4003 24.5556 19.6431 24.5556 18.8536C24.5556 18.0641 24.8541 17.3069 25.3854 16.7486C25.9168 16.1904 26.6374 15.8767 27.3889 15.8767C28.1403 15.8767 28.861 16.1904 29.3924 16.7486C29.9237 17.3069 30.2222 18.0641 30.2222 18.8536C30.2222 19.6431 29.9237 20.4003 29.3924 20.9586C28.861 21.5169 28.1403 21.8305 27.3889 21.8305ZM6.61111 21.8305C5.85966 21.8305 5.13899 21.5169 4.60764 20.9586C4.07629 20.4003 3.77778 19.6431 3.77778 18.8536C3.77778 18.0641 4.07629 17.3069 4.60764 16.7486C5.13899 16.1904 5.85966 15.8767 6.61111 15.8767C7.36256 15.8767 8.08323 16.1904 8.61458 16.7486C9.14593 17.3069 9.44444 18.0641 9.44444 18.8536C9.44444 19.6431 9.14593 20.4003 8.61458 20.9586C8.08323 21.5169 7.36256 21.8305 6.61111 21.8305ZM30.0711 1.98459C29.6933 0.833528 28.6356 0 27.3889 0H6.61111C5.36444 0 4.30667 0.833528 3.92889 1.98459L0 13.8921V29.7688C0 30.2952 0.199007 30.8 0.553243 31.1722C0.907478 31.5444 1.38792 31.7534 1.88889 31.7534H3.77778C4.27874 31.7534 4.75919 31.5444 5.11342 31.1722C5.46766 30.8 5.66667 30.2952 5.66667 29.7688V27.7843H28.3333V29.7688C28.3333 30.2952 28.5323 30.8 28.8866 31.1722C29.2408 31.5444 29.7213 31.7534 30.2222 31.7534H32.1111C32.6121 31.7534 33.0925 31.5444 33.4468 31.1722C33.801 30.8 34 30.2952 34 29.7688V13.8921L30.0711 1.98459Z" fill="#9D9FA1"/>
</svg>
